<svg width="607" height="623" viewBox="0 0 607 623" fill="none" xmlns="http://www.w3.org/2000/svg">
<path fill-rule="evenodd" clip-rule="evenodd" d="M261.286 540.278C299.036 777.641 698.085 431.976 434.571 367.139C171.058 302.302 356.99 194 261.286 194C165.582 194 88 271.517 88 367.14C88 462.761 223.536 302.915 261.286 540.278Z" fill="url(#paint0_linear_1365_567)"/>
<path fill-rule="evenodd" clip-rule="evenodd" d="M251 344C345.993 344 423 266.993 423 172C423 77.007 345.993 0 251 0C156.007 0 297.934 178.387 79 172C-139.934 165.613 156.007 344 251 344Z" fill="url(#paint1_radial_1365_567)"/>
<path fill-rule="evenodd" clip-rule="evenodd" d="M324.881 540.278C288.256 777.641 -98.8944 431.976 156.763 367.139C412.418 302.302 232.03 194 324.881 194C417.731 194 493 271.517 493 367.14C493 462.761 361.505 302.915 324.881 540.278Z" fill="url(#paint2_linear_1365_567)"/>
<path fill-rule="evenodd" clip-rule="evenodd" d="M601.608 178L597.984 179.667L597 183.197L598.158 186.557L601.608 188L604.857 186.361L607 183.196L605.38 179.522L601.608 178Z" fill="#C1C3DA"/>
<path fill-rule="evenodd" clip-rule="evenodd" d="M599.304 205L597.492 205.833L597 207.598L597.579 209.278L599.304 210L600.928 209.18L602 207.598L601.19 205.761L599.304 205Z" fill="#A0AC9A" fill-opacity="0.64"/>
<path fill-rule="evenodd" clip-rule="evenodd" d="M581.686 192L578.787 193.334L578 196.157L578.926 198.845L581.686 200L584.286 198.69L586 196.157L584.705 193.217L581.686 192Z" fill="#A0AC9A" fill-opacity="0.64"/>
<defs>
<linearGradient id="paint0_linear_1365_567" x1="21888" y1="194" x2="21888" y2="43042" gradientUnits="userSpaceOnUse">
<stop stop-color="#3C3D37"/>
<stop offset="1" stop-color="#4234F8" stop-opacity="0"/>
</linearGradient>
<radialGradient id="paint1_radial_1365_567" cx="0" cy="0" r="1" gradientUnits="userSpaceOnUse" gradientTransform="translate(15026.3 -8937.34) rotate(-75.6028) scale(24432.7 16675.1)">
<stop stop-color="#919F8A" stop-opacity="0.17"/>
<stop offset="0.51712" stop-color="#A0AC9A" stop-opacity="0.64"/>
<stop offset="1" stop-color="#A0AC9A" stop-opacity="0.24"/>
</radialGradient>
<linearGradient id="paint2_linear_1365_567" x1="-20657" y1="194" x2="-20657" y2="43042" gradientUnits="userSpaceOnUse">
<stop stop-color="#3C3D37" stop-opacity="0.8"/>
<stop offset="1" stop-color="#4234F8" stop-opacity="0"/>
</linearGradient>
</defs>
</svg>
