<svg width="876" height="760" viewBox="0 0 876 760" fill="none" xmlns="http://www.w3.org/2000/svg">
<path fill-rule="evenodd" clip-rule="evenodd" d="M486.714 539.278C448.964 776.641 49.915 430.976 313.429 366.139C576.942 301.302 391.01 193 486.714 193C582.418 193 660 270.517 660 366.14C660 461.761 524.464 301.915 486.714 539.278Z" fill="url(#paint0_linear_1365_533)"/>
<path fill-rule="evenodd" clip-rule="evenodd" d="M564 343C469.007 343 392 265.993 392 171C392 76.0066 479.598 3.82755 564 35.8196C648.403 67.8116 591 149.016 736 171C881 192.984 658.993 343 564 343Z" fill="url(#paint1_radial_1365_533)"/>
<path d="M575 80C597.091 80 615 62.0914 615 40C615 17.9086 597.091 0 575 0C552.909 0 535 17.9086 535 40C535 62.0914 552.909 80 575 80Z" fill="url(#paint2_radial_1365_533)" fill-opacity="0.72"/>
<path d="M690 103C698.837 103 706 95.8366 706 87C706 78.1634 698.837 71 690 71C681.163 71 674 78.1634 674 87C674 95.8366 681.163 103 690 103Z" fill="url(#paint3_radial_1365_533)" fill-opacity="0.48"/>
<path fill-rule="evenodd" clip-rule="evenodd" d="M398.286 539.278C436.036 776.641 835.085 430.976 571.571 366.139C308.058 301.302 493.99 193 398.286 193C302.582 193 225 270.517 225 366.14C225 461.761 360.536 301.915 398.286 539.278Z" fill="url(#paint4_linear_1365_533)"/>
<path fill-rule="evenodd" clip-rule="evenodd" d="M657.608 50L653.984 51.667L653 55.197L654.158 58.557L657.608 60L660.857 58.361L663 55.196L661.38 51.522L657.608 50Z" fill="#C1C3DA"/>
<path fill-rule="evenodd" clip-rule="evenodd" d="M643.304 72L641.492 72.833L641 74.598L641.579 76.278L643.304 77L644.928 76.18L646 74.599L645.19 72.762L643.304 72Z" fill="#A0AC9A" fill-opacity="0.64"/>
<path fill-rule="evenodd" clip-rule="evenodd" d="M689.686 119L686.787 120.334L686 123.157L686.926 125.845L689.686 127L692.286 125.69L694 123.157L692.705 120.217L689.686 119Z" fill="#3C3D37" fill-opacity="0.64"/>
<defs>
<linearGradient id="paint0_linear_1365_533" x1="-21140" y1="193" x2="-21140" y2="43041" gradientUnits="userSpaceOnUse">
<stop stop-color="#3C3D37"/>
<stop offset="1" stop-color="#268DF7" stop-opacity="0"/>
</linearGradient>
<radialGradient id="paint1_radial_1365_533" cx="0" cy="0" r="1" gradientUnits="userSpaceOnUse" gradientTransform="translate(-12887.5 -8262.27) rotate(-104.397) scale(22636.1 15113.1)">
<stop stop-color="#A0AC9A" stop-opacity="0"/>
<stop offset="0.51712" stop-color="#A0AC9A" stop-opacity="0.64"/>
<stop offset="1" stop-color="#A0AC9A" stop-opacity="0.24"/>
</radialGradient>
<radialGradient id="paint2_radial_1365_533" cx="0" cy="0" r="1" gradientUnits="userSpaceOnUse" gradientTransform="translate(3199 3471.52) scale(4621.6)">
<stop stop-color="#A0AC9A" stop-opacity="0.64"/>
<stop offset="1" stop-color="#A0AC9A" stop-opacity="0.24"/>
</radialGradient>
<radialGradient id="paint3_radial_1365_533" cx="0" cy="0" r="1" gradientUnits="userSpaceOnUse" gradientTransform="translate(1739.6 1459.61) scale(1848.64)">
<stop stop-color="#A0AC9A" stop-opacity="0.64"/>
<stop offset="1" stop-color="#A0AC9A" stop-opacity="0.24"/>
</radialGradient>
<linearGradient id="paint4_linear_1365_533" x1="22025" y1="193" x2="22025" y2="43041" gradientUnits="userSpaceOnUse">
<stop stop-color="#3C3D37" stop-opacity="0.8"/>
<stop offset="1" stop-color="#268DF7" stop-opacity="0"/>
</linearGradient>
</defs>
</svg>
