<svg width="488" height="524" viewBox="0 0 488 524" fill="none" xmlns="http://www.w3.org/2000/svg">
<path fill-rule="evenodd" clip-rule="evenodd" d="M218.278 455.701C186.913 652.916 -144.639 365.718 74.3032 311.848C293.245 257.978 138.762 167.994 218.278 167.994C297.794 167.994 362.254 232.4 362.254 311.849C362.254 391.296 249.643 258.487 218.278 455.701Z" fill="url(#paint0_linear_1365_574)"/>
<path fill-rule="evenodd" clip-rule="evenodd" d="M319.88 292.623C240.954 292.623 176.973 228.641 176.973 149.716C176.973 70.7903 259.061 -26.8187 319.88 6.80859C380.699 40.4358 380.699 192.067 462.787 149.716C544.876 107.365 398.805 292.623 319.88 292.623Z" fill="url(#paint1_radial_1365_574)"/>
<path fill-rule="evenodd" clip-rule="evenodd" d="M143.976 455.701C175.341 652.916 506.893 365.718 287.951 311.848C69.0093 257.978 223.492 167.994 143.976 167.994C64.4595 167.994 0 232.4 0 311.849C0 391.296 112.611 258.487 143.976 455.701Z" fill="url(#paint2_linear_1365_574)"/>
<path fill-rule="evenodd" clip-rule="evenodd" d="M34.5708 84.9092L31.5598 86.2942L30.7422 89.2271L31.7043 92.0188L34.5708 93.2177L37.2702 91.856L39.0507 89.2263L37.7048 86.1737L34.5708 84.9092Z" fill="#C1C3DA"/>
<path fill-rule="evenodd" clip-rule="evenodd" d="M35.9807 117.312L34.4752 118.005L34.0664 119.471L34.5475 120.867L35.9807 121.467L37.33 120.785L38.2207 119.471L37.5477 117.945L35.9807 117.312Z" fill="#A0AC9A" fill-opacity="0.64"/>
<path fill-rule="evenodd" clip-rule="evenodd" d="M13.0332 102.357L10.6246 103.466L9.9707 105.811L10.7401 108.045L13.0332 109.004L15.1935 107.916L16.6176 105.811L15.5416 103.369L13.0332 102.357Z" fill="#A0AC9A" fill-opacity="0.64"/>
<defs>
<linearGradient id="paint0_linear_1365_574" x1="-17750.4" y1="167.994" x2="-17750.4" y2="35768.6" gradientUnits="userSpaceOnUse">
<stop stop-color="#3C3D37"/>
<stop offset="1" stop-color="#99A694"/>
</linearGradient>
<radialGradient id="paint1_radial_1365_574" cx="0" cy="0" r="1" gradientUnits="userSpaceOnUse" gradientTransform="translate(-13634.9 -6630.7) rotate(-104.397) scale(17913.5 16075.2)">
<stop stop-color="#A0AC9A"/>
<stop offset="0.51712" stop-color="#A0AC9A" stop-opacity="0.64"/>
<stop offset="1" stop-color="#A0AC9A" stop-opacity="0.24"/>
</radialGradient>
<linearGradient id="paint2_linear_1365_574" x1="18112.7" y1="167.994" x2="18112.7" y2="35768.6" gradientUnits="userSpaceOnUse">
<stop stop-color="#3C3D37" stop-opacity="0.8"/>
<stop offset="0.206667" stop-color="#9CA996"/>
</linearGradient>
</defs>
</svg>
