<svg width="876" height="762" viewBox="0 0 876 762" fill="none" xmlns="http://www.w3.org/2000/svg">
<path fill-rule="evenodd" clip-rule="evenodd" d="M392.286 548.278C430.036 785.641 829.085 439.976 565.571 375.139C302.058 310.302 487.99 202 392.286 202C296.582 202 219 279.517 219 375.14C219 470.761 354.536 310.915 392.286 548.278Z" fill="url(#paint0_linear_1365_556)"/>
<path fill-rule="evenodd" clip-rule="evenodd" d="M349.608 24L345.984 25.667L345 29.197L346.158 32.557L349.608 34L352.857 32.361L355 29.196L353.38 25.522L349.608 24Z" fill="#A0AC9A"/>
<path fill-rule="evenodd" clip-rule="evenodd" d="M351.304 63L349.492 63.833L349 65.598L349.579 67.278L351.304 68L352.928 67.18L354 65.599L353.19 63.762L351.304 63Z" fill="#3C3D37" fill-opacity="0.64"/>
<path fill-rule="evenodd" clip-rule="evenodd" d="M323.686 45L320.787 46.334L320 49.157L320.926 51.845L323.686 53L326.286 51.69L328 49.156L326.705 46.216L323.686 45Z" fill="#A0AC9A" fill-opacity="0.64"/>
<path fill-rule="evenodd" clip-rule="evenodd" d="M481.714 548.278C443.964 785.641 44.915 439.976 308.429 375.139C571.942 310.302 386.01 202 481.714 202C577.418 202 655 279.517 655 375.14C655 470.761 519.464 310.915 481.714 548.278Z" fill="url(#paint1_linear_1365_556)"/>
<defs>
<linearGradient id="paint0_linear_1365_556" x1="22019" y1="202" x2="22019" y2="43050" gradientUnits="userSpaceOnUse">
<stop stop-color="#3C3D37"/>
<stop offset="1" stop-color="#3C3D37" stop-opacity="0"/>
</linearGradient>
<linearGradient id="paint1_linear_1365_556" x1="-21145" y1="202" x2="-21145" y2="43050" gradientUnits="userSpaceOnUse">
<stop stop-color="#3C3D37" stop-opacity="0.8"/>
<stop offset="1" stop-color="#3C3D37" stop-opacity="0"/>
</linearGradient>
</defs>
</svg>
