<svg width="1440" height="582" viewBox="0 0 1440 582" fill="none" xmlns="http://www.w3.org/2000/svg">
<g clip-path="url(#clip0_1375_605)">
<path fill-rule="evenodd" clip-rule="evenodd" d="M37.262 512.801C82.6096 659.93 338.828 531.813 359.045 486.404C379.262 440.996 293.399 358.659 167.265 302.501C41.1311 246.342 -77.5105 237.628 -97.7274 283.036C-117.945 328.444 -8.08589 365.672 37.262 512.801Z" fill="url(#paint0_linear_1375_605)"/>
<path fill-rule="evenodd" clip-rule="evenodd" d="M106.719 438.489C173.945 503.917 259.417 479.065 271.981 450.846C284.545 422.628 230.924 371.345 152.216 336.302C73.5079 301.259 -0.481561 295.726 -13.0452 323.945C-25.6085 352.162 39.4938 373.061 106.719 438.489Z" fill="url(#paint1_linear_1375_605)"/>
<path fill-rule="evenodd" clip-rule="evenodd" d="M1279.06 282.218C1407.22 295.216 1471.44 439.277 1497.69 388.85C1523.94 338.423 1453.63 282.394 1558.09 186.143C1662.54 89.8911 1414.89 -99.6419 1385.7 63.5921C1356.5 226.825 1150.91 269.22 1279.06 282.218Z" fill="url(#paint2_radial_1375_605)"/>
</g>
<defs>
<linearGradient id="paint0_linear_1375_605" x1="22777.5" y1="10369.2" x2="11462.7" y2="35782.7" gradientUnits="userSpaceOnUse">
<stop stop-color="#3C3D37" stop-opacity="0.5"/>
<stop offset="1" stop-color="#3C3D37" stop-opacity="0.72"/>
</linearGradient>
<linearGradient id="paint1_linear_1375_605" x1="14261" y1="6617.94" x2="9816" y2="15342.4" gradientUnits="userSpaceOnUse">
<stop stop-color="#3C3D37"/>
<stop offset="1" stop-color="#0B0D19" stop-opacity="0"/>
</linearGradient>
<radialGradient id="paint2_radial_1375_605" cx="0" cy="0" r="1" gradientUnits="userSpaceOnUse" gradientTransform="translate(20136.6 -6729.38) rotate(-75.6026) scale(20003.1 22252.4)">
<stop stop-color="#3C3D37" stop-opacity="0"/>
<stop offset="0.51712" stop-color="#3C3D37" stop-opacity="0.64"/>
<stop offset="1" stop-color="#3C3D37" stop-opacity="0.24"/>
</radialGradient>
<clipPath id="clip0_1375_605">
<rect width="1440" height="582" fill="white"/>
</clipPath>
</defs>
</svg>
