<svg width="1440" height="318" viewBox="0 0 1440 318" fill="none" xmlns="http://www.w3.org/2000/svg">
<g clip-path="url(#clip0_1372_582)">
<path fill-rule="evenodd" clip-rule="evenodd" d="M1139.49 90C1206.53 97.177 1300.59 65.247 1364.49 0H1051.2C1076.5 48.079 1093.56 85.083 1139.49 90Z" fill="url(#paint0_linear_1372_582)"/>
<path fill-rule="evenodd" clip-rule="evenodd" d="M1249.49 6.993C1098.82 -24.675 1086.66 261.532 1116.58 301.229C1146.49 340.925 1260.13 305.745 1370.4 222.652C1480.67 139.559 1545.81 40.0172 1515.89 0.321043C1485.98 -39.3759 1400.16 38.6602 1249.49 6.993Z" fill="url(#paint1_linear_1372_582)"/>
<path fill-rule="evenodd" clip-rule="evenodd" d="M1340.9 18.2836C1255.05 56.1042 1246.07 144.663 1267.53 166.882C1288.99 189.101 1356.62 158.597 1418.6 98.7476C1480.57 38.8986 1513.42 -27.6314 1491.96 -49.8518C1470.51 -72.0708 1426.74 -19.5369 1340.9 18.2836Z" fill="url(#paint2_linear_1372_582)"/>
</g>
<defs>
<linearGradient id="paint0_linear_1372_582" x1="13177.4" y1="-17026" x2="12645.8" y2="10210.8" gradientUnits="userSpaceOnUse">
<stop stop-color="#A0AC9A" stop-opacity="0"/>
<stop offset="1" stop-color="#A0AC9A"/>
</linearGradient>
<linearGradient id="paint1_linear_1372_582" x1="-18395.8" y1="15117.6" x2="-35137.4" y2="-7099.29" gradientUnits="userSpaceOnUse">
<stop offset="0.436667" stop-color="#3C3D37" stop-opacity="0.2"/>
<stop offset="0.666667" stop-color="#3C3D37" stop-opacity="0.72"/>
</linearGradient>
<linearGradient id="paint2_linear_1372_582" x1="-9690.88" y1="10827.1" x2="-16115" y2="3437.44" gradientUnits="userSpaceOnUse">
<stop stop-color="#3C3D37" stop-opacity="0.32"/>
<stop offset="1" stop-color="#3C3D37" stop-opacity="0"/>
</linearGradient>
<clipPath id="clip0_1372_582">
<rect width="1440" height="318" fill="white"/>
</clipPath>
</defs>
</svg>
