<svg width="1440" height="347" viewBox="0 0 1440 347" fill="none" xmlns="http://www.w3.org/2000/svg">
<g clip-path="url(#clip0_1373_593)">
<path fill-rule="evenodd" clip-rule="evenodd" d="M570.103 262.091C638.521 359.059 796.029 204.323 800.029 166.263C804.029 128.203 721.338 88.3154 615.329 77.1735C509.323 66.0318 420.144 87.8536 416.143 125.915C412.143 163.975 501.684 165.122 570.103 262.091Z" fill="url(#paint0_linear_1373_593)"/>
<path fill-rule="evenodd" clip-rule="evenodd" d="M21.262 256.801C66.6096 403.93 322.828 275.813 343.045 230.404C363.262 184.996 277.399 102.659 151.265 46.5006C25.1311 -9.65797 -93.5105 -18.3723 -113.727 27.0355C-133.945 72.4442 -24.0859 109.672 21.262 256.801Z" fill="url(#paint1_linear_1373_593)"/>
<path fill-rule="evenodd" clip-rule="evenodd" d="M90.7195 182.49C157.945 247.917 243.417 223.066 255.981 194.846C268.545 166.629 214.924 115.345 136.216 80.3025C57.5079 45.2593 -16.4816 39.7267 -29.0452 67.9452C-41.6085 96.1628 23.4938 117.061 90.7195 182.49Z" fill="url(#paint2_linear_1373_593)"/>
</g>
<defs>
<linearGradient id="paint0_linear_1373_593" x1="19617.7" y1="2074.4" x2="17378.8" y2="23375.6" gradientUnits="userSpaceOnUse">
<stop stop-color="#3C3D37" stop-opacity="0.3"/>
<stop offset="1" stop-color="#3C3D37" stop-opacity="0.72"/>
</linearGradient>
<linearGradient id="paint1_linear_1373_593" x1="22761.5" y1="10113.2" x2="11446.7" y2="35526.7" gradientUnits="userSpaceOnUse">
<stop stop-color="#3C3D37" stop-opacity="0.7"/>
<stop offset="1" stop-color="#0B0D19" stop-opacity="0.72"/>
</linearGradient>
<linearGradient id="paint2_linear_1373_593" x1="14245" y1="6361.94" x2="9800" y2="15086.4" gradientUnits="userSpaceOnUse">
<stop stop-color="#3C3D37"/>
<stop offset="1" stop-color="#3C3D37" stop-opacity="0"/>
</linearGradient>
<clipPath id="clip0_1373_593">
<rect width="1440" height="347" fill="white"/>
</clipPath>
</defs>
</svg>
