<svg width="772" height="672" viewBox="0 0 772 672" fill="none" xmlns="http://www.w3.org/2000/svg">
<path fill-rule="evenodd" clip-rule="evenodd" d="M345.713 483.521C378.982 692.849 730.655 388.01 498.426 330.831C266.197 273.652 430.055 178.142 345.713 178.142C261.371 178.142 193 246.503 193 330.832C193 415.159 312.445 274.193 345.713 483.521Z" fill="url(#paint0_linear_1365_556)" fill-opacity="0.6"/>
<path fill-rule="evenodd" clip-rule="evenodd" d="M308.102 21.165L304.908 22.6351L304.041 25.7482L305.062 28.7114L308.102 29.9839L310.965 28.5385L312.854 25.7473L311.426 22.5073L308.102 21.165Z" fill="#A0AC9A"/>
<path fill-rule="evenodd" clip-rule="evenodd" d="M309.597 55.5586L308 56.2932L307.566 57.8497L308.077 59.3313L309.597 59.968L311.028 59.2449L311.973 57.8506L311.259 56.2306L309.597 55.5586Z" fill="#3C3D37" fill-opacity="0.64"/>
<path fill-rule="evenodd" clip-rule="evenodd" d="M285.258 39.6846L282.703 40.861L282.01 43.3506L282.826 45.7211L285.258 46.7397L287.549 45.5844L289.06 43.3497L287.919 40.7569L285.258 39.6846Z" fill="#A0AC9A" fill-opacity="0.64"/>
<path fill-rule="evenodd" clip-rule="evenodd" d="M424.525 483.521C391.257 692.849 39.5834 388.01 271.813 330.831C504.041 273.652 340.183 178.142 424.525 178.142C508.867 178.142 577.238 246.503 577.238 330.832C577.238 415.159 457.793 274.193 424.525 483.521Z" fill="url(#paint1_linear_1365_556)" fill-opacity="0.3"/>
<defs>
<linearGradient id="paint0_linear_1365_556" x1="19404.9" y1="178.142" x2="19404.9" y2="37965.4" gradientUnits="userSpaceOnUse">
<stop stop-color="#3C3D37"/>
<stop offset="1" stop-color="#3C3D37" stop-opacity="0"/>
</linearGradient>
<linearGradient id="paint1_linear_1365_556" x1="-18634.6" y1="178.142" x2="-18634.6" y2="37965.4" gradientUnits="userSpaceOnUse">
<stop stop-color="#3C3D37" stop-opacity="0.8"/>
<stop offset="1" stop-color="#3C3D37" stop-opacity="0"/>
</linearGradient>
</defs>
</svg>
