<svg width="1440" height="318" viewBox="0 0 1440 318" fill="none" xmlns="http://www.w3.org/2000/svg">
<g clip-path="url(#clip0_25_30)">
<path fill-rule="evenodd" clip-rule="evenodd" d="M1139.49 90C1206.53 97.177 1300.59 65.247 1364.49 0H1051.2C1076.5 48.079 1093.56 85.083 1139.49 90Z" fill="url(#paint0_linear_25_30)"/>
<path fill-rule="evenodd" clip-rule="evenodd" d="M1249.49 6.993C1098.82 -24.675 1086.66 261.532 1116.58 301.229C1146.49 340.925 1260.13 305.745 1370.4 222.652C1480.67 139.559 1545.81 40.0172 1515.89 0.321043C1485.98 -39.3759 1400.16 38.6602 1249.49 6.993Z" fill="url(#paint1_linear_25_30)"/>
<path fill-rule="evenodd" clip-rule="evenodd" d="M1224.09 -6.00057C1091.13 37.5781 1096.3 182.906 1136.67 224.713C1177.04 266.519 1281.64 231.009 1370.29 145.396C1458.95 59.7838 1498.09 -43.5103 1457.71 -85.319C1417.34 -127.125 1357.05 -49.5796 1224.09 -6.00057Z" fill="url(#paint2_linear_25_30)"/>
</g>
<defs>
<linearGradient id="paint0_linear_25_30" x1="13177.4" y1="-17026" x2="12645.8" y2="10210.8" gradientUnits="userSpaceOnUse">
<stop stop-color="white" stop-opacity="0"/>
<stop offset="1" stop-color="#3C3D37"/>
</linearGradient>
<linearGradient id="paint1_linear_25_30" x1="-18395.8" y1="15117.6" x2="-35137.4" y2="-7099.29" gradientUnits="userSpaceOnUse">
<stop stop-color="#606483" stop-opacity="0"/>
<stop offset="1" stop-color="#ECDFCC"/>
</linearGradient>
<linearGradient id="paint2_linear_25_30" x1="-14521.5" y1="15491.9" x2="-26366.4" y2="1405.08" gradientUnits="userSpaceOnUse">
<stop stop-color="#697565"/>
<stop offset="1" stop-color="#0B0D19" stop-opacity="0"/>
</linearGradient>
<clipPath id="clip0_25_30">
<rect width="1440" height="318" fill="white"/>
</clipPath>
</defs>
</svg>
