<svg width="876" height="762" viewBox="0 0 876 762" fill="none" xmlns="http://www.w3.org/2000/svg">
<path fill-rule="evenodd" clip-rule="evenodd" d="M392.286 540.278C430.036 777.641 829.085 431.976 565.571 367.139C302.058 302.302 487.99 194 392.286 194C296.582 194 219 271.517 219 367.14C219 462.761 354.536 302.915 392.286 540.278Z" fill="url(#paint0_linear_25_71)"/>
<path fill-rule="evenodd" clip-rule="evenodd" d="M272 343C457 303.09 444 265.993 444 171C444 76.007 329 178 272 47.898C215 -82.203 -44.8356 90.254 100 171C244.836 251.746 87.0004 382.91 272 343Z" fill="url(#paint1_radial_25_71)" fill-opacity="0.6"/>
<path fill-rule="evenodd" clip-rule="evenodd" d="M349.608 16L345.984 17.667L345 21.197L346.158 24.557L349.608 26L352.857 24.361L355 21.196L353.38 17.522L349.608 16Z" fill="#C1C3DA"/>
<path fill-rule="evenodd" clip-rule="evenodd" d="M351.304 55L349.492 55.833L349 57.598L349.579 59.278L351.304 60L352.928 59.18L354 57.599L353.19 55.762L351.304 55Z" fill="#FF6C50" fill-opacity="0.64"/>
<path fill-rule="evenodd" clip-rule="evenodd" d="M323.686 37L320.787 38.334L320 41.157L320.926 43.845L323.686 45L326.286 43.69L328 41.156L326.705 38.216L323.686 37Z" fill="#268DF7" fill-opacity="0.64"/>
<path fill-rule="evenodd" clip-rule="evenodd" d="M481.714 540.278C443.964 777.641 44.915 431.976 308.429 367.139C571.942 302.302 386.01 194 481.714 194C577.418 194 655 271.517 655 367.14C655 462.761 519.464 302.915 481.714 540.278Z" fill="url(#paint2_linear_25_71)" fill-opacity="0.5"/>
<defs>
<linearGradient id="paint0_linear_25_71" x1="22019" y1="194" x2="22019" y2="43042" gradientUnits="userSpaceOnUse">
<stop stop-color="#424242"/>
<stop offset="1" stop-color="#4234F8" stop-opacity="0"/>
</linearGradient>
<radialGradient id="paint1_radial_25_71" cx="0" cy="0" r="1" gradientUnits="userSpaceOnUse" gradientTransform="translate(16400.6 -8259.88) rotate(-75.603) scale(22388.2 18470.5)">
<stop stop-color="#FF6C50" stop-opacity="0"/>
<stop offset="0.51712" stop-color="#3C3D37"/>
<stop offset="1" stop-color="#3C3D37"/>
</radialGradient>
<linearGradient id="paint2_linear_25_71" x1="-21145" y1="194" x2="-21145" y2="43042" gradientUnits="userSpaceOnUse">
<stop stop-color="#697565"/>
<stop offset="1" stop-color="#ECDFCC"/>
</linearGradient>
</defs>
</svg>
