<svg width="680" height="492" viewBox="0 0 680 492" fill="none" xmlns="http://www.w3.org/2000/svg">
<path d="M493 73C404.5 119 338 167.5 253 222.5C150 265 43.5 161.5 0 73C101.5 73 85.9613 73 192 73C298.039 73 404.5 73 493 73Z" fill="#697565"/>
<path d="M550 297.5C550 401.053 458.666 485 346 485C233.334 485 107.5 523.053 107.5 419.5C107.5 315.947 185.834 143.5 298.5 143.5C411.166 143.5 550 193.947 550 297.5Z" fill="#ECDFCC" fill-opacity="0.7"/>
<ellipse cx="471.987" cy="189.371" rx="175.448" ry="111.683" transform="rotate(-32.692 471.987 189.371)" fill="#3C3D37"/>
</svg>
